HIERARCHY
ROOT Hips
{
  OFFSET 2.26061 22.2878 23.7974
  CHANNELS 6 Xposition Yposition Zposition Zrotation Xrotation Yrotation
  JOINT LeftUpLeg
  {
    OFFSET 8.64259 1.95398 -2.38835
    CHANNELS 3 Zrotation Xrotation Yrotation
    JOINT LeftLeg
    {
      OFFSET 43.7702 0 0
      CHANNELS 3 Zrotation Xrotation Yrotation
      JOINT LeftFoot
      {
        OFFSET 40.6238 0 0
        CHANNELS 3 Zrotation Xrotation Yrotation
        JOINT LeftToeBase
        {
          OFFSET 12.7242 0 0
          CHANNELS 3 Zrotation Xrotation Yrotation
          End Site
          {
            OFFSET 0 0 0
          }
        }
      }
    }
  }
  JOINT RightUpLeg
  {
    OFFSET -8.2249 1.95398 -2.59336
    CHANNELS 3 Zrotation Xrotation Yrotation
    JOINT RightLeg
    {
      OFFSET 43.5653 0 0
      CHANNELS 3 Zrotation Xrotation Yrotation
      JOINT RightFoot
      {
        OFFSET 40.6238 0 0
        CHANNELS 3 Zrotation Xrotation Yrotation
        JOINT RightToeBase
        {
          OFFSET 12.7242 0 0
          CHANNELS 3 Zrotation Xrotation Yrotation
          End Site
          {
            OFFSET 0 0 0
          }
        }
      }
    }
  }
  JOINT Spine
  {
    OFFSET 0.165834 0.87714 6.61349
    CHANNELS 3 Zrotation Xrotation Yrotation
    JOINT Spine1
    {
      OFFSET 7.38963 1.71661e-005 0
      CHANNELS 3 Zrotation Xrotation Yrotation
      JOINT Spine2
      {
        OFFSET 11.9445 1.14441e-005 0
        CHANNELS 3 Zrotation Xrotation Yrotation
        JOINT Spine3
        {
          OFFSET 14.7254 4.19617e-005 0
          CHANNELS 3 Zrotation Xrotation Yrotation
          JOINT Spine4
          {
            OFFSET 10.9679 0 0
            CHANNELS 3 Zrotation Xrotation Yrotation
            JOINT RightShoulder
            {
              OFFSET 2.46616 -1.6653 3.69651
              CHANNELS 3 Zrotation Xrotation Yrotation
              JOINT RightArm
              {
                OFFSET 13.0012 0 0
                CHANNELS 3 Zrotation Xrotation Yrotation
                JOINT RightForeArm
                {
                  OFFSET 28.7848 1.52588e-005 0
                  CHANNELS 3 Zrotation Xrotation Yrotation
                  JOINT RightHand
                  {
                    OFFSET 26.5688 1.52588e-005 0
                    CHANNELS 3 Zrotation Xrotation Yrotation
                    End Site
                    {
                      OFFSET 0 0 0
                    }
                  }
                }
              }
            }
            JOINT LeftShoulder
            {
              OFFSET 2.38034 -1.29275 -3.7523
              CHANNELS 3 Zrotation Xrotation Yrotation
              JOINT LeftArm
              {
                OFFSET 16.3182 6.10351e-005 0
                CHANNELS 3 Zrotation Xrotation Yrotation
                JOINT LeftForeArm
                {
                  OFFSET 27.0901 0 0
                  CHANNELS 3 Zrotation Xrotation Yrotation
                  JOINT LeftHand
                  {
                    OFFSET 24.5451 1.52588e-005 0
                    CHANNELS 3 Zrotation Xrotation Yrotation
                    End Site
                    {
                      OFFSET 0 0 0
                    }
                  }
                }
              }
            }
            JOINT Neck
            {
              OFFSET 5.0226 -0.0266342 0
              CHANNELS 3 Zrotation Xrotation Yrotation
              JOINT Head
              {
                OFFSET 6.69363 2.86102e-005 0
                CHANNELS 3 Zrotation Xrotation Yrotation
                End Site
                {
                  OFFSET 0 0 0
                }
              }
            }
          }
        }
      }
    }
  }
}
MOTION
Frames:	17
Frame Time:	0.0416667
306.827 82.8294 176.082 -26.278 14.8647 80.3592 127.342 86.2147 151.224 -5.48825 -41.6766 -8.1953 2.75033 -38.2154 -38.6738 2.57237 23.7091 -133.385 -2.09272 41.4103 -111.831 -59.6259 4.42164 27.7893 111.025 -15.428 1.8967 -139.489 24.3223 -6.64415 -4.17889 4.99884 -102.628 14.8439 -14.4701 -23.3588 3.05305 -15.4578 -22.7383 -18.014 -7.06188 -26.3998 1.99863 -7.06186 -26.3998 49.9354 75.8359 -8.0424 42.0279 33.956 -175.024 -17.1849 -53.8364 -0.0060347 -11.6275 1.05211 -15.5473 38.2549 -45.5522 -125.316 20.5338 -8.07085 -61.876 -12.5804 39.2293 -8.75976 80.2699 -7.26163 -12.5242 -89.5307 -43.49 -166.276 91.4115 72.3493 112.739 
307.099 82.7636 176.247 -26.9387 15.0166 80.617 119.817 86.5815 158.897 -5.99942 -42.3553 -8.84143 3.14385 -39.0527 -37.6621 0.0493556 25.0072 -133.101 -2.33185 40.7138 -111.864 -59.6295 3.82566 27.8423 112.088 -15.8395 2.02306 -134.701 -3.8532 -5.13243 -4.16533 4.98451 -102.718 14.8502 -14.4872 -23.5371 3.05641 -15.4822 -22.9166 -17.9842 -7.03038 -26.5717 2.02842 -7.03038 -26.5717 48.5116 75.878 -6.39795 43.2191 35.8861 -176.272 -17.3831 -51.3975 -0.00570757 -12.8146 1.40348 -16.8605 36.7973 -44.5919 -125.958 19.2846 -8.0063 -62.6233 -11.9567 40.5311 -8.91616 79.6857 -6.93683 -12.2348 -89.3837 -43.1147 -166.044 94.2968 69.5878 109.292 
307.858 82.5046 176.705 -28.871 15.4178 81.3783 88.9417 87.1511 -169.769 -7.60257 -43.9847 -10.7902 4.67651 -41.2782 -34.6448 -6.28865 28.1464 -132.152 -3.04519 38.5606 -112.022 -60.0001 2.20813 28.1009 115.024 -16.8677 2.47721 -111.554 -25.9966 2.00938 -4.11404 4.94118 -102.968 14.8755 -14.5091 -24.0386 3.07289 -15.5243 -23.419 -17.8912 -6.91691 -27.0478 2.12141 -6.91691 -27.0478 44.6133 75.9412 -1.90089 47.0471 41.4411 179.94 -17.6859 -43.7384 -0.00492874 -16.3356 2.60035 -20.9097 32.7388 -41.8016 -127.633 15.6501 -7.6203 -64.6428 -9.90328 44.1182 -9.65082 77.9405 -6.17095 -11.573 -88.9673 -42.7463 -165.106 97.5122 63.2759 104.683 
309.012 82.0101 177.403 -32.0901 15.9451 82.6566 42.3997 86.0143 -122.39 -10.3549 -45.8462 -14.1373 8.12542 -44.2265 -29.4998 -13.9775 31.76 -130.727 -4.17296 34.8221 -112.438 -61.1991 -0.0647977 28.7141 119.268 -18.1204 3.35367 -82.6469 -26.1234 10.0719 -3.99021 4.86798 -103.35 14.9347 -14.4548 -24.813 3.11714 -15.5012 -24.1989 -17.7224 -6.65806 -27.7587 2.29028 -6.65804 -27.7587 39.0478 75.8801 4.55615 54.8892 50.4021 172.707 -16.9956 -28.9883 -0.00407106 -22.0347 5.17218 -28.4904 26.6277 -37.2887 -129.835 9.81741 -6.40733 -67.3711 -5.5974 49.2791 -11.9318 74.9388 -5.40659 -11.0118 -88.5044 -43.0616 -163.239 98.4612 56.8049 102.037 
310.474 81.3675 178.3 -36.6275 16.3921 84.4586 19.9807 82.5743 -98.6525 -14.2761 -47.4115 -18.9461 14.1002 -47.0735 -22.1819 -20.7867 34.9899 -129.601 -5.52346 29.5741 -113.246 -63.2124 -2.57768 29.7039 124.128 -19.2515 4.60901 -66.17 -21.7813 12.1775 -3.75018 4.76911 -103.827 15.0369 -14.2214 -25.8026 3.19787 -15.3076 -25.2024 -17.4716 -6.17144 -28.6225 2.54105 -6.17143 -28.6224 32.7929 75.6033 11.8735 71.7744 62.2671 157.629 -13.0836 -2.60558 -0.00356472 -27.6293 9.48204 -41.8668 18.9668 -31.2043 -132.052 2.16615 -3.80043 -69.8552 2.80676 54.812 -17.7836 70.4235 -5.06616 -11.1161 -88.2445 -43.7893 -160.605 98.7313 51.6448 100.105 
312.153 80.6132 179.365 -42.275 16.4622 86.6697 10.2635 74.3602 -86.9059 -25.7099 -46.5358 -24.5225 22.2353 -50.4928 -16.7409 -25.3913 37.6698 -129.615 -6.89026 23.1252 -114.503 -65.9614 -5.08314 31.0057 129.168 -20.0484 6.15456 -58.882 -18.4344 11.5194 -3.37193 4.66505 -104.343 15.1623 -13.7374 -26.9066 3.29605 -14.8678 -26.3316 -17.1707 -5.41556 -29.5274 2.84192 -5.41558 -29.5274 26.7024 75.162 18.9847 117.787 72.3884 115.311 -4.7842 42.8272 -0.003464 -23.869 9.81865 -63.1194 10.2467 -23.9169 -133.868 -6.62478 0.350291 -71.0425 17.4728 58.568 -29.6259 64.098 -5.3402 -12.3803 -88.2559 -44.4664 -157.485 99.3083 47.6123 98.062 
313.989 79.8027 180.586 -48.1581 15.8853 88.9354 7.85401 67.9725 -79.8891 -37.2448 -44.1241 -35.9728 35.3159 -51.1468 -6.25864 -26.9489 39.8427 -131.508 -8.03933 16.3757 -116.092 -69.2509 -7.44535 32.3555 134.086 -20.4075 7.81607 -55.5788 -15.986 10.1489 -2.96861 4.61926 -104.929 15.1591 -13.2251 -28.1716 3.2615 -14.4056 -27.6233 -16.9713 -4.5923 -30.5795 3.0413 -4.5923 -30.5795 18.5127 74.5422 28.087 -172.622 62.64 52.1969 -172.491 76.3762 179.983 -8.22431 -2.22235 -74.5452 -1.96782 -13.9096 -135.554 -17.2 7.51725 -67.5338 37.3746 58.2869 -47.2419 55.8703 -5.9405 -14.8536 -89.1211 -46.0608 -154.461 99.9965 44.5126 95.7862 
316.715 78.8911 181.931 -46.2901 15.189 90.203 -8.55246 68.5441 -61.3785 -40.5812 -33.4146 -53.3103 50.5235 -44.9754 4.54216 -24.4837 41.3078 -136.112 -9.71199 12.2705 -113.369 -73.3832 -10.0072 31.4056 138.98 -20.3946 8.90055 -53.4832 -14.2743 8.99965 -3.52493 5.06409 -105.421 14.0821 -14.4645 -29.1287 2.19055 -15.6877 -28.532 -18.0185 -5.49056 -31.8018 1.99412 -5.49052 -31.8018 9.46542 74.2884 36.751 -146.348 43.3881 34.4564 -159.293 33.9064 179.987 4.50066 -12.1919 -67.6627 -14.9526 -3.74903 -136.265 -28.0919 15.2828 -60.9769 53.2392 52.68 -61.7052 46.7206 -6.45463 -18.2594 -90.516 -47.3165 -151.461 100.885 41.5816 93.7754 
308.141 79.6021 183.51 -136.458 6.82471 95.2338 110.46 23.8551 -110.086 146.159 -18.2278 114.79 69.3843 -46.4147 73.2173 -4.48878 36.223 -151.43 -47.5735 -59.7704 -159.657 -72.7548 -5.14546 60.0688 139.111 -18.2 16.9428 -56.1003 -8.42807 2.74027 8.04071 0.157724 -103.985 26.7926 7.10284 -31.3973 14.7632 5.78396 -31.6402 -5.39065 15.861 -28.2913 14.622 15.8611 -28.2913 -0.0346065 74.617 44.3522 -133.274 30.5519 29.1883 -149.265 14.472 179.984 9.35392 -12.3661 -56.8955 -26.8169 4.64198 -136.279 -37.7792 19.8619 -52.5976 61.1408 44.7337 -69.3422 38.1706 -6.56805 -21.7925 -92.1699 -47.4587 -148.556 102.067 38.4756 92.2016 
309.029 78.9645 184.247 -145.723 5.25545 98.8397 124.111 26.3965 -108.883 -100.861 26.1667 90.8122 60.0363 24.9918 -13.5921 23.6788 17.1284 -163.962 -72.102 -26.7679 -166.768 -12.0718 -13.8586 95.4576 121.484 -14.8561 6.78179 -59.4385 2.84425 -7.89515 8.491 1.35398 -104.17 24.564 8.26548 -31.6373 12.5338 6.93683 -31.9234 -7.67515 17.0448 -28.2064 12.3375 17.0448 -28.2064 45.012 63.48 21.3409 -29.7658 -41.3055 76.5331 -11.0317 -53.2975 -81.859 -9.60896 4.17897 -42.1578 -59.044 24.5973 -125.269 -61.1059 26.1974 -25.4973 64.0503 37.2147 -73.96 31.2469 -6.27043 -24.627 -88.2646 -41.7088 -131.564 109.438 31.7674 81.3002 
310.202 78.4812 184.971 -153.707 1.91222 102.15 137.478 26.1399 -107.782 -117.393 27.2798 86.3134 57.8632 12.437 4.55034 46.4339 -4.37588 -162.886 -155.393 65.905 -122.421 98.6279 20.5047 -118.827 67.5099 20.3506 -74.0839 -50.358 0.197388 -0.512721 9.43942 0.708842 -104.248 26.1543 9.76953 -32.5736 14.1094 8.405 -32.913 -6.07409 18.7416 -28.7198 13.9385 18.7416 -28.7198 32.0594 66.8496 28.542 -44.5688 -39.7555 63.1867 -17.6574 -58.4089 -87.8016 -5.93573 1.70468 -39.4009 -77.1436 30.9638 -123.411 -71.096 23.0772 -8.75885 64.7224 31.4404 -76.4547 26.1299 -5.83023 -26.6985 -91.5234 -43.0585 -130.807 109.242 29.0869 81.9581 
311.54 78.0869 185.681 -160.041 -2.4855 105.025 148.46 27.7073 -106.364 -107.912 27.6265 73.4772 63.213 17.7627 2.19718 64.8019 -17.9999 -153.527 114.416 8.39692 31.1127 -150.673 -8.00225 -71.0134 81.134 -64.5593 -63.6827 -34.2202 -15.8444 16.7412 10.288 0.321552 -104.454 27.2088 11.0845 -33.6578 15.1451 9.67921 -34.0417 -4.97604 20.2935 -29.4375 15.0366 20.2935 -29.4375 18.8535 69.4003 36.4257 -51.4487 -38.5052 55.6797 -14.2112 -63.3815 -87.2004 -3.67668 0.673415 -36.2018 -94.8566 36.1162 -120.663 -78.2226 17.9506 5.17964 64.2129 27.1311 -77.8194 22.5606 -5.41276 -28.1177 -94.6511 -43.7765 -129.561 109.377 26.085 82.3461 
312.877 77.7571 186.362 -165.148 -7.22557 107.426 158.366 30.1679 -105.637 -94.1297 22.9997 60.6174 70.0466 26.0819 -7.63103 78.6019 -23.2065 -141.903 123.361 -6.64669 40.4705 -129.805 -10.6623 -57.8217 120.489 -54.922 -24.2539 -35.25 -13.3343 13.258 11.0561 -0.00992873 -104.725 28.1351 12.2169 -34.8238 16.0493 10.7686 -35.2438 -3.97847 21.689 -30.2937 16.0342 21.689 -30.2937 0.758872 71.967 47.5211 -62.7115 -35.0621 46.1107 -16.5567 -72.691 -91.6085 -0.843933 -0.537599 -33.3724 -108.766 39.6304 -118.686 -81.9194 12.8355 14.368 63.3047 23.998 -78.5284 20.105 -5.07 -29.0575 -97.898 -44.4014 -128.771 109.365 23.0542 83.0935 
314.077 77.4956 186.957 -169.55 -11.9153 109.438 169.44 32.8478 -106.996 -81.4431 13.975 49.263 79.0255 34.8162 -21.6023 88.1306 -23.3039 -130.868 132.963 -11.1317 48.9443 -125.24 -9.97696 -50.0645 127.459 -52.3232 -17.5248 -33.0699 -11.8875 11.9604 6.80181 -1.02763 -98.0391 17.9533 7.45893 -21.547 6.33054 6.44771 -21.8291 -15.9965 13.7325 -18.4852 4.01611 13.7325 -18.4852 -24.8939 74.1677 63.8868 -79.3183 -24.9785 34.4753 -94.0772 -74.3876 -169.122 3.28262 -2.37939 -31.0671 -117.037 41.7647 -118.193 -83.296 9.38804 18.4359 62.3725 21.7411 -78.8635 18.4093 -4.80009 -29.6502 -101.223 -44.9408 -128.494 109.143 19.9327 84.2679 
315.048 77.3462 187.412 -173.688 -16.438 111.177 -173.905 34.1785 -113.275 -74.2615 3.82477 36.959 87.09 42.2896 -32.7108 95.6882 -21.2438 -120.721 140.692 -12.4652 55.6511 -122.807 -9.16738 -45.4011 131.798 -50.5321 -13.7101 -30.6057 -10.348 10.482 -15.2342 11.3482 -72.6032 10.8671 -20.6823 37.5808 -1.29487 -19.1427 38.312 -21.6849 -30.6383 30.4951 -1.67225 -30.6383 30.4951 -60.5263 75.1231 87.1778 -99.1929 1.24805 24.4938 -125.666 -12.4989 179.667 9.51423 -5.55904 -29.655 -118.678 42.673 -119.663 -83.2502 8.36366 17.3165 61.5995 20.147 -79.0239 17.2164 -4.58461 -29.9825 -104.625 -45.3836 -128.792 108.677 16.6062 85.9394 
315.757 77.4394 187.699 -177.936 -20.8423 112.717 -141.484 25.2127 -129.906 -75.0426 -5.45091 10.7593 87.7454 49.8125 -33.3542 103.754 -17.986 -110.45 147.314 -13.0275 60.8866 -120.176 -8.82208 -41.9792 135.497 -48.3036 -10.5514 -27.9074 -8.67084 8.68362 -13.0691 9.76836 -74.9559 9.09977 -19.4629 31.0311 -2.81954 -18.1488 31.7646 -24.5152 -27.6377 24.2192 -4.50255 -27.6377 24.2192 -97.4119 73.897 110.374 -120.373 46.8916 26.8553 -176.471 5.45321 177.936 14.2257 -8.28959 -31.4058 -115.714 42.5261 -122.012 -82.2101 9.20102 12.3431 60.9961 19.0259 -79.0958 16.3473 -4.40398 -30.1114 -120.785 -37.2942 -137.521 104.939 24.7533 85.3752 
316.285 78.1765 187.901 177.351 -25.239 114.079 -92.9335 -15.4034 -138.543 -80.689 -12.0151 -52.9644 74.4701 61.925 -19.4544 111.613 -12.0929 -98.7644 153.082 -13.8568 64.72 -115.949 -9.31139 -39.247 138.37 -45.0817 -7.79015 -24.7061 -6.90662 6.6358 -11.4302 11.2597 -77.3067 5.6128 -17.5979 25.3035 -6.20224 -16.5057 26.001 -28.4415 -24.2552 19.0587 -8.42886 -24.2552 19.0587 155.221 54.1316 160.048 40.1783 36.7021 -120.684 0.484706 53.6474 -55.439 -4.74033 -0.156751 -33.7715 -78.9605 31.818 -144.739 -70.8889 19.854 -16.2989 61.6373 19.3229 -79.8765 15.6279 -4.21862 -30.0094 73.5388 40.4441 -43.2536 62.6755 -12.0955 -79.7228 
